<svg width="100" height="100" viewBox="0 0 100 100" fill="none" xmlns="http://www.w3.org/2000/svg">
<circle cx="50" cy="50" r="50" fill="#F2F2F2"/>
<path d="M46.392 40.568C47.6933 40.568 48.8347 40.8453 49.816 41.4C50.8187 41.9333 51.5867 42.6907 52.12 43.672C52.6747 44.6533 52.952 45.784 52.952 47.064C52.952 48.344 52.6747 49.464 52.12 50.424C51.5653 51.384 50.776 52.1307 49.752 52.664C48.7493 53.1973 47.5867 53.464 46.264 53.464H40.632C40.5467 53.464 40.504 53.5067 40.504 53.592V62.68C40.504 62.8933 40.3973 63 40.184 63H37.752C37.5387 63 37.432 62.8933 37.432 62.68V40.888C37.432 40.6747 37.5387 40.568 37.752 40.568H46.392ZM45.976 50.968C47.1493 50.968 48.088 50.616 48.792 49.912C49.5173 49.208 49.88 48.28 49.88 47.128C49.88 45.9547 49.5173 45.016 48.792 44.312C48.088 43.5867 47.1493 43.224 45.976 43.224H40.632C40.5467 43.224 40.504 43.2667 40.504 43.352V50.84C40.504 50.9253 40.5467 50.968 40.632 50.968H45.976ZM59.6968 60.184C59.6754 60.2267 59.6754 60.2693 59.6968 60.312C59.7181 60.3333 59.7501 60.344 59.7928 60.344H69.4248C69.6381 60.344 69.7448 60.4507 69.7448 60.664V62.68C69.7448 62.8933 69.6381 63 69.4248 63H56.0168C55.8034 63 55.6968 62.8933 55.6968 62.68V60.728C55.6968 60.5787 55.7501 60.4507 55.8568 60.344C56.5821 59.512 58.2461 57.56 60.8488 54.488L63.0568 51.832C65.0408 49.464 66.0328 47.6293 66.0328 46.328C66.0328 45.3253 65.6914 44.5253 65.0088 43.928C64.3474 43.3093 63.4621 43 62.3528 43C61.2434 43 60.3581 43.3093 59.6968 43.928C59.0354 44.5467 58.7154 45.3573 58.7368 46.36V47.32C58.7368 47.5333 58.6301 47.64 58.4168 47.64H55.9528C55.7394 47.64 55.6328 47.5333 55.6328 47.32V45.944C55.6754 44.8347 55.9848 43.8533 56.5608 43C57.1581 42.1467 57.9581 41.496 58.9608 41.048C59.9634 40.5787 61.0941 40.344 62.3528 40.344C63.7181 40.344 64.9128 40.6 65.9368 41.112C66.9608 41.624 67.7501 42.328 68.3048 43.224C68.8594 44.12 69.1368 45.1333 69.1368 46.264C69.1368 48.0347 68.1768 50.1253 66.2568 52.536C65.4034 53.624 64.3901 54.8507 63.2168 56.216C62.0434 57.56 60.8701 58.8827 59.6968 60.184Z" fill="black"/>
</svg>
