<svg width="100" height="100" viewBox="0 0 100 100" fill="none" xmlns="http://www.w3.org/2000/svg">
<circle cx="50" cy="50" r="50" fill="#F2F2F2"/>
<path d="M46.392 40.568C47.6933 40.568 48.8347 40.8453 49.816 41.4C50.8187 41.9333 51.5867 42.6907 52.12 43.672C52.6747 44.6533 52.952 45.784 52.952 47.064C52.952 48.344 52.6747 49.464 52.12 50.424C51.5653 51.384 50.776 52.1307 49.752 52.664C48.7493 53.1973 47.5867 53.464 46.264 53.464H40.632C40.5467 53.464 40.504 53.5067 40.504 53.592V62.68C40.504 62.8933 40.3973 63 40.184 63H37.752C37.5387 63 37.432 62.8933 37.432 62.68V40.888C37.432 40.6747 37.5387 40.568 37.752 40.568H46.392ZM45.976 50.968C47.1493 50.968 48.088 50.616 48.792 49.912C49.5173 49.208 49.88 48.28 49.88 47.128C49.88 45.9547 49.5173 45.016 48.792 44.312C48.088 43.5867 47.1493 43.224 45.976 43.224H40.632C40.5467 43.224 40.504 43.2667 40.504 43.352V50.84C40.504 50.9253 40.5467 50.968 40.632 50.968H45.976ZM68.2728 52.376C68.6994 53.4213 68.9128 54.6267 68.9128 55.992C68.9128 57.1227 68.7421 58.168 68.4008 59.128C67.9314 60.4507 67.1528 61.4747 66.0648 62.2C64.9768 62.904 63.6648 63.256 62.1288 63.256C60.5928 63.256 59.2594 62.8613 58.1288 62.072C57.0194 61.2827 56.2408 60.216 55.7928 58.872C55.5581 58.2747 55.4194 57.4213 55.3768 56.312C55.3768 56.0987 55.4834 55.992 55.6968 55.992H58.1608C58.3741 55.992 58.4808 56.0987 58.4808 56.312C58.5234 57.08 58.6088 57.6453 58.7368 58.008C58.9501 58.7973 59.3448 59.4267 59.9208 59.896C60.5181 60.3653 61.2541 60.6 62.1288 60.6C63.7501 60.6 64.8381 59.864 65.3928 58.392C65.6701 57.752 65.8088 56.92 65.8088 55.896C65.8088 54.808 65.6381 53.8373 65.2968 52.984C64.6994 51.6613 63.6328 51 62.0968 51C61.7341 51 61.2754 51.16 60.7208 51.48C60.6354 51.5227 60.5714 51.544 60.5288 51.544C60.4221 51.544 60.3368 51.4907 60.2728 51.384L59.0568 49.72C59.0141 49.6347 58.9928 49.56 58.9928 49.496C58.9928 49.432 59.0248 49.3573 59.0888 49.272L64.5608 43.416C64.6248 43.3093 64.6034 43.256 64.4968 43.256H55.9848C55.7714 43.256 55.6648 43.1493 55.6648 42.936V40.92C55.6648 40.7067 55.7714 40.6 55.9848 40.6H68.4008C68.6141 40.6 68.7208 40.7067 68.7208 40.92V43.224C68.7208 43.3307 68.6674 43.4587 68.5608 43.608L63.6968 48.92C63.6541 48.9627 63.6434 49.0053 63.6648 49.048C63.6861 49.0693 63.7288 49.0907 63.7928 49.112C64.8808 49.2187 65.7981 49.56 66.5448 50.136C67.2914 50.6907 67.8674 51.4373 68.2728 52.376Z" fill="black"/>
</svg>
