<svg width="100" height="100" viewBox="0 0 100 100" fill="none" xmlns="http://www.w3.org/2000/svg">
<circle cx="50" cy="50" r="50" fill="#F2F2F2"/>
<path d="M46.392 40.568C47.6933 40.568 48.8347 40.8453 49.816 41.4C50.8187 41.9333 51.5867 42.6907 52.12 43.672C52.6747 44.6533 52.952 45.784 52.952 47.064C52.952 48.344 52.6747 49.464 52.12 50.424C51.5653 51.384 50.776 52.1307 49.752 52.664C48.7493 53.1973 47.5867 53.464 46.264 53.464H40.632C40.5467 53.464 40.504 53.5067 40.504 53.592V62.68C40.504 62.8933 40.3973 63 40.184 63H37.752C37.5387 63 37.432 62.8933 37.432 62.68V40.888C37.432 40.6747 37.5387 40.568 37.752 40.568H46.392ZM45.976 50.968C47.1493 50.968 48.088 50.616 48.792 49.912C49.5173 49.208 49.88 48.28 49.88 47.128C49.88 45.9547 49.5173 45.016 48.792 44.312C48.088 43.5867 47.1493 43.224 45.976 43.224H40.632C40.5467 43.224 40.504 43.2667 40.504 43.352V50.84C40.504 50.9253 40.5467 50.968 40.632 50.968H45.976ZM70.0968 54.232C70.3101 54.232 70.4167 54.3387 70.4167 54.552V56.664C70.4167 56.8773 70.3101 56.984 70.0968 56.984H68.7208C68.6354 56.984 68.5928 57.0267 68.5928 57.112V62.68C68.5928 62.8933 68.4861 63 68.2728 63H65.8408C65.6274 63 65.5208 62.8933 65.5208 62.68V57.112C65.5208 57.0267 65.4781 56.984 65.3928 56.984H55.6648C55.4514 56.984 55.3448 56.8773 55.3448 56.664V54.936C55.3448 54.8293 55.3768 54.7013 55.4408 54.552L61.7448 40.824C61.8088 40.6747 61.9261 40.6 62.0968 40.6H64.6568C64.7634 40.6 64.8381 40.6427 64.8808 40.728C64.9448 40.792 64.9554 40.8773 64.9128 40.984L58.8968 54.072C58.8754 54.1147 58.8754 54.1573 58.8968 54.2C58.9181 54.2213 58.9501 54.232 58.9928 54.232H65.3928C65.4781 54.232 65.5208 54.1893 65.5208 54.104V49.336C65.5208 49.1227 65.6274 49.016 65.8408 49.016H68.2728C68.4861 49.016 68.5928 49.1227 68.5928 49.336V54.104C68.5928 54.1893 68.6354 54.232 68.7208 54.232H70.0968Z" fill="black"/>
</svg>
